<svg width="12" height="13" viewBox="0 0 12 13" fill="none" xmlns="http://www.w3.org/2000/svg">
<path d="M11.625 8.75H9.75V3.82812L11.8828 1.67188C12.0234 1.53125 12.0234 1.29688 11.8828 1.15625L11.3438 0.617188C11.2031 0.476562 10.9688 0.476562 10.8281 0.617188L8.67188 2.75H4.5V4.25H7.17188L3.75 7.69531V0.875C3.75 0.6875 3.5625 0.5 3.375 0.5H2.625C2.41406 0.5 2.25 0.6875 2.25 0.875V2.75H0.375C0.164062 2.75 0 2.9375 0 3.125V3.875C0 4.08594 0.164062 4.25 0.375 4.25H2.25V9.5C2.25 9.92188 2.57812 10.25 3 10.25H7.5V8.75H4.80469L8.25 5.32812V12.125C8.25 12.3359 8.41406 12.5 8.625 12.5H9.375C9.5625 12.5 9.75 12.3359 9.75 12.125V10.25H11.625C11.8125 10.25 12 10.0859 12 9.875V9.125C12 8.9375 11.8125 8.75 11.625 8.75Z" fill="#2D83DC"/>
</svg>
